<svg width="16" height="15" viewBox="0 0 16 15" fill="none" xmlns="http://www.w3.org/2000/svg">
<path fill-rule="evenodd" clip-rule="evenodd" d="M10.7117 6.441C11.4099 6.97466 11.4099 8.02605 10.7117 8.5597L7.65841 10.8933C6.78101 11.5639 5.51541 10.9383 5.51541 9.83397V5.16673C5.51541 4.06241 6.78101 3.43678 7.65841 4.10738L10.7117 6.441ZM9.90204 7.50035L6.84875 5.16673L6.84875 9.83397L9.90204 7.50035Z" fill="#424551"/>
<path fill-rule="evenodd" clip-rule="evenodd" d="M7.99984 1.50033C4.68613 1.50033 1.99984 4.18662 1.99984 7.50033C1.99984 10.814 4.68613 13.5003 7.99984 13.5003C11.3135 13.5003 13.9998 10.814 13.9998 7.50033C13.9998 4.18662 11.3135 1.50033 7.99984 1.50033ZM0.666504 7.50033C0.666504 3.45024 3.94975 0.166992 7.99984 0.166992C12.0499 0.166992 15.3332 3.45024 15.3332 7.50033C15.3332 11.5504 12.0499 14.8337 7.99984 14.8337C3.94975 14.8337 0.666504 11.5504 0.666504 7.50033Z" fill="#424551"/>
</svg>
